<?xml version="1.0" encoding="UTF-8"?>
<svg version="1.1" viewBox="0 0 2048 1200" width="1280" height="1280" xmlns="http://www.w3.org/2000/svg">
<path transform="translate(0)" d="m0 0h2048v1200h-2048z" fill="#FDFDFD"/>
<path transform="translate(1196,154)" d="m0 0 15 1 16 4 18 5 25-4h19l11 3 1 3-14 6-24 6-23 5-4 4-1 16-12 25-4 5-8 6-12 6 1 8 4 3 18 5 28 4 12 1h36l18-4 21-7 20-8 16-7 17-10 8-8v-25l4-10 1-1h8l2 1h9l18-12 6-2h8l8 4 3 5v9l-4 10-10 9-15 10-14 10-11 9-11 12-11 10-18 12-16 8-20 8-26 8-38 7-3 1-6 18-8 11-3 10-1 27-3 22-3 15 3 16 5 17 5 12 10 19 11 23 11 18 12 19 9 17 2 7-10 6-2 5 5 9 8 10 11 12 11 13 10 14 13 16 11 14 9 10 9 11 10 11 9 13 11 11 10 13 7 10 5 4 17 4 21 5 46 12 47 14 55 19 27 11 24 10 20 9 47 23 39 22 24 15 18 12 1 2-9-2-28-10-38-13-25-8-54-17-86-23-24-6-25-5-55-12-57-10-73-11-49-6-53-5-76-5-64-2h-117l-69 3-58 4-65 6-55 7-70 10-44 7-53 10-49 10-53 12-104 26-34 10-20 5h-5l3-2 27-11 20-8 28-10 43-16 42-15 47-15 11-4 23-5 49-14 37-9 2-1-7-4-9-6-5-8v-8l2-4-1-6-9-7-28-15-11-8-9-9-2-3v-12l5-10 7-8 11-8 32-19 25-14 18-12 15-9 22-13 23-13 22-13 24-14 16-10 8-3 6-1h13l16 4 10 4 10 6 18 8 17 8 9 5 7-1 33-22 14-10 22-14 12-8 15-11 11-8 8-6 12-8 7-8 11-28 6-11 9-14 7-11 8-9 10-13 10-14 8-19 5-15 4-14 6-13 5-15v-9l-2-2h-39l-13-3-8-7-6-12v-12l7-8 5-2h15l3 1-1 6-4 6v5l2 2h10l14-7 9-17 3-10v-15h-9l-14 3-45 5h-11l-3-1 1-3 20-9 15-4 53-11 9-4 4-5 14-8 10-5 17-5z" fill="#F18C40"/>
<path transform="translate(261,270)" d="m0 0h58l25 3 22 5 26 8 16 6 16 8 16 10 11 9 10 7 6 1 6-3 6-8 8-7 13-8 24-11 15-6 17-4 20-2h34l28 3 25 5 13 4v2l-12 3-18 2-8 3-10 5-5 1h-24l-12 2-1 3 2 3v3l-34 3-21 4-7 3-1 3 6 2 2 3-10 5-16 7-6 3h-2v3h8l33-11 18-7 17-4 33-3 19-1h17l25 2 19 3 44 12 27 10 8 5-1 2-6 1-19-3-10-1h-21l-5 3-4 4h-9l-36-3-19-1 4 10-1 3-10 1h-70l-10 2-1 2 11 3 5 3 1 5-7 3-22 4-6 3h-2l1 3 39 1 16 3 26 7 33 12 17 9 13 10 10 10 10 15 8 19 3 9v20l-10 30-5 13-4 4-5 1-2-3-1-28-4-8v-2h-6l-5 2h-5l-6-17-5-23-2-4-5 1-6 11-3 2-6-1-5-8-6-16-7-14-8-11-5-3-6 1-3 3-2 7-9 1-10-7-13-10-18-12h-6l-2 3 1 5 8 11 11 13 9 9 7 10 7 14 3 10 2 9v16l-4 18-5 12-10 14-11 12-13 11-13 9-15 9-21 11-25 10-22 5-4-1 6-7 11-8 20-11 7-8v-4l-10-3-1-4 7-7 12-9 13-10 8-6 1-3-16 1-9 1-1-1 1-7 24-24 9-11 6-9 1-5-2-4-6 1-7 6-6 1-4-3v-17l2-19v-9l-5-1-6 3-7 5-4-1-4-4-4-13-3-7-2-2-7 1-10 10-7 8-8 10-10 16-8 16-8 19-4 16-3 26v23l2 23 4 17 7 16 8 16 5 19 8 16 12 19 12 17 13 17 11 13 9 11 9 10v2l4 2 6 5 8 3 17 2-2 2-50 16-57 20-4-1-6-4-30-9-26-12-32-15-19-11-16-11-10-9-16-16-7-8-9-11-11-16-10-19-4-14-2-12-8-11-5-4-7-1-1 1-1 9v19l-3 2h-7l-7-2-2 1v9l7 12 6 10 1 8-7 2h-7l3 5 6 5 4 5 9 6-1 6-3 5 2 6 7 8 5 4v3l-9-1-15-5-11-6-13-10-17-17-9-13-4-10v-17l4-15 9-14 16-16 11-9 9-8v-2l-4-1-13 4-11 7-8 6-5-1-8-5-7 1-8 7-7 11-7 10h-19l-3 3-3 8v5l-9 6-12 5-5 5-4 13-1 4-4-1-5-10-1-4v-21l5-15 7-10 6-8 10-9 15-10 17-8 29-9 22-5 3-5v-4l-5-1h-12l-12 2h-13l-20-5-9 1-14 3h-19l-12-2-3-2 2-4 4-3 19-7 22-6 18-3h28l47 6 3-12 4-9 10-15 7-18 7-16 7-11 8-8 8-7 11-10 17-12 16-9 30-14 20-7 33-9 15-3 20-6 20-8 2-1v-2l-3-1h-13l-63 9h-14l-1-3 4-8 5-5 1-3-14 1-17 5-27 11-22 8-19 10-8 3-4-1v-7l5-10 1-5-9 2-19 10-25 15-16 10-6 2-5-10v-2h-10l-16 8-14 10-10 9-13 10-6 1-1-5 7-14 11-13 9-10 12-11 14-11 17-12 19-11 24-10 21-7 25-6 29-4 29-2h37l31 2 23 5 20 4-3-5-5-5 2-4 15-2 5-1-1-3-9-5-21-5-34-6-18-3-5-3 4-4 8-4-1-3-16-4-19-2-17-1-8-5-3-8-6-4-3-1-51-1-10-2v-3l2-1 42-5z" fill="#57C0A8"/>
<path transform="translate(1196,154)" d="m0 0 15 1 16 4 18 5 25-4h19l11 3 1 3-14 6-24 6-23 5-4 4-1 16-12 25-4 5-8 6-12 6 1 8 4 3 18 5 28 4 12 1h36l18-4 21-7 20-8 16-7 17-10 8-8v-25l4-10 1-1h8l2 1h9l18-12 6-2h8l8 4 3 5v9l-4 10-10 9-15 10-14 10-11 9-11 12-11 10-18 12-16 8-20 8-26 8-38 7-3 1-6 18-8 11-3 10-1 27-3 22-3 15 3 16 5 17 5 12 10 19 11 23 11 18 12 19 9 17 2 7-10 6-2 5 5 9 8 10 11 12 11 13 10 14 13 16 11 14 9 10 9 11 10 11 9 13 11 11 10 13 7 10 2 2v3l-8-1-21-4-3-1-6-11-6-5h-7l-5 4-3 7-16-2 2-11v-11l-7-14-11-13-15-13-11-9-13-11-11-9-15-13-14-14-24-32-2-1h-67l-9 5-14 13-11 9-15 15-11 9-11 11-8 7-13 12-15 14-8 7-10 9-5 5h-2l-2 4-8 9-1 2h-2v2l-3 1-18 1h-21l1-4 11-9 20-13 2-2v-5h-9l-21 7-19 7h-8l-6-4v-2l30-10 12-5 13-4 17-9 19-19 9-13 14-22 10-15 8-11 17-14 2-2v-3l-5-5-3-4v-7l11-16 6-15 3-15v-64l2-10 8-16 15-15 11-9 4-3h2l2-4 3-7v-18l-3-10-2-2-7 1-12 16-8 10-8 11-6 8-7 10-10 14-5 9v6l5 10-1 4-9 5-12 9-2 3 2 13-5 5-5 4-7 3-7 2-19 3-10 6-19 12-15 11-17 12-16 11-23 16-17 12-29 20-14 10-19 13-17 12-13 9-11 8-14 10-13 10-34 24-10 7-11 7-17 12-19 14-5 4-1 5 2 7v6l-1 1-1 9-43 10-7-1-7-4-9-6-5-8v-8l2-4-1-6-9-7-28-15-11-8-9-9-2-3v-12l5-10 7-8 11-8 32-19 25-14 18-12 15-9 22-13 23-13 22-13 24-14 16-10 8-3 6-1h13l16 4 10 4 10 6 18 8 17 8 9 5 7-1 33-22 14-10 22-14 12-8 15-11 11-8 8-6 12-8 7-8 11-28 6-11 9-14 7-11 8-9 10-13 10-14 8-19 5-15 4-14 6-13 5-15v-9l-2-2h-39l-13-3-8-7-6-12v-12l7-8 5-2h15l3 1-1 6-4 6v5l2 2h10l14-7 9-17 3-10v-15h-9l-14 3-45 5h-11l-3-1 1-3 20-9 15-4 53-11 9-4 4-5 14-8 10-5 17-5z" fill="#970D0E"/>
<path transform="translate(1158,337)" d="m0 0 5 1 3 5 2 7v18l-4 8-5 5-8 6-6 5-15 15-7 15-2 10v64l-4 18-6 14-10 14v7l5 6v2l3 1-1 4-10 9-10 8-10 15-7 11-8 12-7 11-9 12-18 18-19 10-16 5-15 6-20 6h-2l3 3 3 2h8l19-7 21-7 9 1 1 5-7 6-16 10-11 9-5 3-58 5-39 4-49 7-63 10-49 9-23 5-5-1v-13l-2-10 4-5 19-14 20-14 14-9 34-24 24-18 11-8 60-42 26-18 16-11 14-10 23-16 16-11 17-12 14-10 10-7 16-10 7-4 19-3 11-3 11-8 1-5-2-10 4-5 14-10 6-2-1-5-4-9v-6l9-15 10-13 7-11 6-7 10-14 7-8 8-11z" fill="#FDFDFD"/>
<path transform="translate(1309,876)" d="m0 0h9l15 4 2 3-7 7-7 8-2 1-11-5-11-3-4 20-3 24-6 68v21l4 11 6 8 4 1 16-6 10-5h2l2-9 2-19v-28l-3-2h-20l-2-2 1-5 8-4 20-7 28-8 6 1 5 4-2 29-4 38v10l2 9 3 4 10-1 13-4 1-22 3-19 4-13 4-6 17-12 23-13 10-4h12l1-20 2-13 4-6 10-9 15-10 10-6 21-9h8l13 3v4l-5 5-9 10-11-2-5-1h-9l-4 8-3 19-5 65v39l2 9 4 6h8l13-5 1-19 4-21 4-12 4-6 10-7 17-10 21-11 7-2h21l21 4 10 4v3l-8 7-2 5-3 28v26l3 15 1 4 8-2 16-7 5 1v7l-11 8-14 9-14 8-14 6h-7l-7-5-3-7-1-14-7 4-15 10-16 9-7 3-7-1-7-6-9-19-4 2-25 15-18 9h-6l-7-5-3-9-2-10v-4l-7 4-22 14-15 9-9 3-6-3-4-7-4-10-1-7-38 19-17 7-7-1-5-5-3-12v-16l-17 12-20 12-16 9h-9l-5-3-7-10-5-11-3-12v-12l4-55 3-35 3-20 4-11 4-5 11-8 15-9 15-7z" fill="#990F0F"/>
<path transform="translate(1173,574)" d="m0 0h67l6 5 6 9 13 17 9 10 10 10 11 9 14 12 11 9 14 12 11 9 9 10 7 11 3 7v11l-3 9-13-1-37-5-51-5-58-4-19-1-35-1h-119l4-7 22-22 8-7 10-9 8-7 8-8 8-7 13-12 12-11 8-7 11-11 11-9 12-11z" fill="#FDFDFD"/>
<path transform="translate(1076,782)" d="m0 0h105l51 3 45 4 41 5 47 7 34 7 31 7 45 12 29 9 20 6 19 8 18 7 1 3h-7l-19-4-14-3-51-7-16-3-47-7-58-7-71-6-58-4-35-1h-144l-49 2-49 4-33 3-52 6-55 8-20 4-27 4-27 6-49 10-25 7-14 3h-5l1-3 23-11 27-10 12-5 16-6 36-11 37-10 19-5 30-6 60-10 21-3 42-5 56-5 30-2z" fill="#FECD3E"/>
<path transform="translate(1752,670)" d="m0 0h29l15 3 17 6 11 6 13 11 9 13 4 9 1 4v19l-4 13-6 11-9 10-9 8-14 9-19 8-19 5-19 3h-28l-23-3-24-5-25-7-19-7-20-10-17-10-35-23-19-12-18-10-25-11-30-11-43-14-16-6v-3l14-2h34l26 5 30 10 29 14 26 15 23 15 20 12 17 10 17 9 25 9 21 5 24 3h27l21-4 16-6 13-8 9-8 7-12 3-14-1-11-5-10-9-8-12-6-13-3h-19l-16 4-12 5-7 5-2 3v9l5 5 12 6 20 8-1 2-15 4h-13l-11-3-13-7-6-5-5-9 1-10 6-11 9-9 11-7 11-5 13-4z" fill="#63ACDA"/>
<path transform="translate(908,910)" d="m0 0h87l-1 3-8 6-20 4-3 43v7l6 4 3 1h63l2-23 2-33-23-3-2-1 1-3 7-5h85l-2 4-6 5-9 2-9 1-3 28-3 40-2 31-2 38 23 3 3 1-2 4-6 5h-89l2-4 7-6 11-2 11-1v-11l3-52-1-3-6-3h-54l-11 1-3 37-1 17v13l9 2 18 3-1 3-9 6h-89l1-3 8-6 20-4 3-31 4-50 3-56-20-2-4-2 2-4z" fill="#991010"/>
<path transform="translate(1177,948)" d="m0 0h19l11 4 8 5 7 8 4 8 3 12v27l-4 18-7 13-9 9-14 9-22 10-14 4-7 1h-11l-12-3-9-6-8-8-5-10-3-19v-12l2-16 5-13 6-10 11-10 18-10 20-8z" fill="#990F10"/>
<path transform="translate(306,614)" d="m0 0h6l20 9 9 7 6 7 15 46 11 26 9 17 14 20 13 17 10 11 7 8 9 11 1 5-1 1h-7l-27-9-26-11-30-14-18-10-27-16-17-13-11-9-13-13-11-14-9-15-5-11-4-16v-12l5-1 13 5 13-1 6 4 12 11 4 4h15l3 4v10l1 9 4 4 11 4 2 3 1 14 3 6 3 4 1 10v6l4 1 7-4 6-10 5-14 1-5v-20l-9-16-7-9-7-6-18-11-14-6-25-10-4-4 2-2h10l7 2h11z" fill="#FDFDFD"/>
<path transform="translate(390,909)" d="m0 0 87 1 17 3 12 6 6 7 3 7 1 5v16l-4 17-7 11-9 9-11 7-13 4-9 2h-29l-6-2-1-2 2-4 16-4 12-5 6-5 6-12 2-12v-16l-3-10-7-8-10-3-8-1h-16l-6 82-3 56 33 3 3 1-1 3-10 7-53 1-44-1 2-4 6-5 5-2 16-3 3-32 8-104-24-2-2-2 8-8z" fill="#980F0F"/>
<path transform="translate(581,949)" d="m0 0h20l13 2 18 5 1 4-7 7-3 11-2 18-1 23 2 17 2 9 8-1 16-8 4-1 2 7-4 5-18 12-18 10-11 5-9 1-6-4-3-5-2-15-1-2-20 13-17 10-7 3-7-1-4-2-7-11-4-9-1-4v-26l3-22 3-11 4-9 18-12 24-13 11-5z" fill="#980F0F"/>
<path transform="translate(1597,949)" d="m0 0h21l21 4 10 4v3l-8 7-2 5-3 28v26l3 15 1 4 8-2 16-7 5 1v7l-11 8-14 9-14 8-14 6h-7l-7-5-3-7-1-14-7 4-15 10-16 9-7 3-7-1-7-6-9-19 1-4-1-2 1-2 1-9v-10l-2 4v-8l4-21 4-12 4-6 10-7 17-10 21-11z" fill="#990F10"/>
<path transform="translate(729,949)" d="m0 0h12l9 3 1 1-1 7-1 3 15-6 27-8 9 1 3 4v12l-5 46v23l4 8 1 1h7l19-6 3 1-1 8-9 6-28 14-16 7-3 1h-10l-4-5-3-10v-26l3-35v-20l-4-4-11-1-2 1-4 9-6-2-8-5-3-1h-9l-8 4-4 4-1 7-4 62-2 11-12 6-14 4-8 2h-4l2-22 2-23 2-28v-24l-2-3h-10l-11 1v-7l16-8 24-9 10-3h8l3 4v14l5-2 12-10z" fill="#990F0F"/>
<path transform="translate(404,436)" d="m0 0h6l-1 17-3 16-6 10-10 13-12 18-12 23-4 8-11 39-3 12-5 4-6 1-19-4h-17l-24 2-14 4h-9l-1-1v-5l8-10 9-9 9-4h2v-7l4-4 24-6 9-6 2-3v-4l-7-3-9-2-3-2-1-3v-14l3-16 5-14 7-14 7-6 2-1h8l3 5 2 8 6 5 5-1 26-26 13-10 12-8z" fill="#FDFDFD"/>
<path transform="translate(1761,947)" d="m0 0 5 1 8 11 4 10v8l-3 12-11 23-15 24-10 17-14 22-9 16-12 20-12 19-8 11-7 8-9 6-15 4h-12l-13-1-9-3 1-5 6-10 6-8h7l5 1h15l15-4 9-7 6-7 8-13 5-9v-10l-13-52-11-33-8-17-6-5h-9l-6 1-4-2-1-5 10-6 19-9 16-6h9l5 5 6 15 11 36 8 35 2 6 8-14 6-13 3-11v-11l-3-12-8-16-3-4v-3l15-9z" fill="#980F0F"/>
<path transform="translate(1309,876)" d="m0 0h9l15 4 2 3-7 7-7 8-2 1-11-5-11-3-4 20-3 24-6 68v21l4 11 6 8 4 1 16-6 10-5h2l2-2v27h-1v-16l-17 12-20 12-16 9h-9l-5-3-7-10-5-11-3-12v-12l4-55 3-35 3-20 4-11 4-5 11-8 15-9 15-7z" fill="#980F0F"/>
<path transform="translate(1842,947)" d="m0 0 12 1 10 4 7 6 2 3-1 6-10 17-4 1-7-10-8-7-10-4-10 1-4 2-3 9 3 8 5 4 30 13 8 4 7 7 4 11-1 11-4 9-6 8-7 7-16 10-13 6-8 2h-19l-12-6-7-7-9-14v-3l11-9 9-7h3l6 14 7 10 10 6 10 1 8-3 5-5 1-3v-7l-3-5-10-6-17-7-10-6-5-4-4-6-1-4v-16l4-10 9-11 8-7 9-7 10-5z" fill="#980F0F"/>
<path transform="translate(1870,687)" d="m0 0 9 3 16 9 12 11 7 8 8 14 6 16 4 22v87l2 8 4 6 3 3v2l-7-1-8-7-10-14-14-27-6-18-1-5v-68l-3-15-5-12-7-10-10-11z" fill="#63ACDA"/>
<path transform="translate(1161,963)" d="m0 0h10l7 3 6 8 5 13 2 10v33l-4 17-4 6-5 5-6 2-9-1-6-3-7-8-6-18-2-17 1-22 5-17 7-8z" fill="#FEFDFD"/>
<path transform="translate(1442,968)" d="m0 0h13l10 4 2 3-2 32-1 24-2 5-12 7-8 2-7-6-3-8-1-4v-32l3-16 4-8z" fill="#FEFDFD"/>
<path transform="translate(306,614)" d="m0 0h6l20 9 9 7 6 7 15 46 11 26 9 17 12 17-1 2-3-3v-2h-2l-4-6v-2l-3-1-5-9-5-6-6-5-4-4-4-13-1-6-2-1-3 19-2 6-1-4 2-8v-20l-9-16-7-9-7-6-18-11-14-6-25-10-4-4 2-2h10l7 2h11z" fill="#F2FEFE"/>
<path transform="translate(566,968)" d="m0 0 11 1 9 4 1 4-2 18-2 31-1 9-9 6-10 5-5-2-5-8-3-12v-20l2-17 3-10 7-8z" fill="#FEFDFD"/>
<path transform="translate(1574,355)" d="m0 0 12 3 12 5 12 7 1 1 1 16 4 7 5 2h10l2 1-2 4-6 5 1 4 4 2 8 1 3 4 5 21 1 9v17l-4-1-4-4-4-12-1-7-1-3-4-2-8-7-12-8-2-2-6 1-8 6-5-1-2-5 5-5 8-5-1-7-3-10-2-12-6-8-7-7-6-7z" fill="#63ADD9"/>
<path transform="translate(1581,968)" d="m0 0 11 1 9 4v12l-3 36-1 14-10 7-6 3h-7l-4-5-3-8-1-6v-28l2-13 5-12 5-4z" fill="#FEFDFD"/>
<path transform="translate(1182,672)" d="m0 0h17l33 4 12 1 83 1 8 3 2 4-5 5-10 4-4 1h-61l-19-2-16-3-21-7-17-8z" fill="#64ADD9"/>
<path transform="translate(1752,670)" d="m0 0h22l-2 2-7 2h-3l-18 1-2 2 7 1-3 2-4 2h-5l-2 2-4 2 2 1h5l-1 5-5 5-12 6-4 5v9l5 5 12 6 20 8-1 2-15 4h-13l-11-3-13-7-6-5-5-9 1-10 6-11 9-9 11-7 11-5 13-4z" fill="#69B3D2"/>
<path transform="translate(599,305)" d="m0 0h11l7 1-1 3-7 1-1 2 9 4v3l-8 4-1 2 18 1h27l-2 2h-24l-44 3-18 3-21 7-15 6-22 7h-6l-2-1v-3l21-10 12-5-3-3-4-2 1-4 11-4 17-3 20-2h14l-3-6 2-4z" fill="#F2FEFE"/>
<path transform="translate(319,303)" d="m0 0 16 3 4 3-2 4-10 5 4 3 35 6 31 6 10 3 7 5v3l-5 2-15 2-1 3 7 7v3l-12-1-14-4 3-2v-2l-9-3-12-3-10-1-16-8v-4l12-2-2-2-8-4-7-2-2-3 1-4 5-3 1-5-4-1-7-3z" fill="#F2FEFE"/>
<path transform="translate(1695,1106)" d="m0 0 1 2-2 4 7 2-2 5-11 17-11 13-9 6-15 4h-12l-13-1-9-3 1-5 6-10 6-8h7l5 1h15l15-4 9-7 6-7z" fill="#9B1411"/>
<path transform="translate(1556,464)" d="m0 0 7 1 13 9 8 8 7 13 5 8 16 1v3l-8 3 4 4 9 4 7 8 9 15 1 5h-3l-3-3v-2l-4-2-6-4-13-5-14-9-3-1-2 7-3 3h-6l-5-6 1-5 9-5-2-5-7-8-4-8-5-15-3-8-5-4z" fill="#69B3D2"/>
<path transform="translate(1761,947)" d="m0 0 5 1 4 5 1 14 2 7-3 9-4 9-7 11-9 5h-2l-2-16-5-14-8-13v-3l15-9z" fill="#980F0F"/>
<path transform="translate(313,386)" d="m0 0h14l-1 4-6 7-2 7h14l55-8 8-1h13l4 2-1 3-14 6-24 8-12 3-14 3-19 5-3-1 3-2 6-2 3-2v-2l-10-1-10-4-1-2v-9l1-2v-7l-3-2-6-1v-1z" fill="#F2FEFE"/>
<path transform="translate(1842,947)" d="m0 0 12 1 10 4 7 6 2 3-1 6-10 17-4 1-7-10-8-7-10-4-10 1-4 2-3 4-4-6 2-6 11-7 10-4z" fill="#980E0F"/>
<path transform="translate(786,895)" d="m0 0 4 1 11 14 5 6-2 4-6 7h-2v2l-8 7-3 3-5-1-10-10-7-9-2-5 12-10z" fill="#981010"/>
<path transform="translate(1355,895)" d="m0 0 4 1 11 13 6 9-15 15-8 6-4-1-7-7-11-14v-3l10-9 11-8z" fill="#980F0F"/>
<path transform="translate(1515,406)" d="m0 0 4 1 5 19 4 10v16h9l6 3-4 4h-3l1 5 10 7v1l-10-1-8-1-6-1h-8l-3 2h-7v-4l10-5-1-8-1-19-2-5 1-16z" fill="#69B4D1"/>
<path transform="translate(1769,955)" d="m0 0 4 2 5 12v8l-3 12-11 23-15 24-10 17-6 9-4-1v-5l3-4 6-13 1-3h2l2-6 4-9-2-1 1-9 1-3 7-3 4-2 5-7 4-7 4-10 1-6-2-6v-7z" fill="#8B0F13"/>
<path transform="translate(394,745)" d="m0 0 5 5 10 13 10 11 7 8 9 11 1 5-1 1h-7l-19-6-2-5-12-9-4-6 1-5 2-2 6-1-3-12-3-6z" fill="#F2FEFE"/>
<path transform="translate(527,426)" d="m0 0h6l22 15 10 8-2 2 1 9 1 5-4 1h-3l-1 3 7 10v2l-3-1-6-9-9-10-10-11-10-13-2-3 1-5z" fill="#F2FEFE"/>
<path transform="translate(1182,672)" d="m0 0h17l33 4 4 2h-2v2h13l13 1-1 2h-17l19 1 7 1-1 4-13 1-2-1h-5l-3 3v1l-12-1-17-4-16-6-16-8z" fill="#69B4D1"/>
<path transform="translate(311,552)" d="m0 0 1 2-18 8-5 2v4l4 2 2 6-7 6-5 5-6 3-2 3h8v1l-20 5h-9l-1-1v-5l8-10 9-9 9-4h2v-7l4-4 24-6z" fill="#F2FEFE"/>
<path transform="translate(1528,537)" d="m0 0h7l8 6v8l1 3 7 1h9l4-2 1 1 2 16-3 1-3-2-3-7-6 1-6 5-9 4-7 1 2-4 4-4-1-5-8-15-18-4-1-2z" fill="#68B4D0"/>
<path transform="translate(564,384)" d="m0 0 17 2 8 3-1 4-11 4-9 1v3l14 4v1l-13-1-39-1-1-4 8-4 26-5 2-1z" fill="#F2FEFE"/>
<path transform="translate(456,437)" d="m0 0h5l4 4 5 14 2 6 3 4-5-2-1-3-5-2-3-1-5 2h-7l-4-1-9 3-8 10-8 13-8 16-6 13-1-3 10-22 9-15 8-11 10-11 7-8z" fill="#F2FEFE"/>
<path transform="translate(86,590)" d="m0 0 8 1 16 4h13l12-2h12l5 2 1 4-3 5-9 3-14 3-4-1 13-4 8-2 1-3-38 3-5 4h-12v-3l8-4-1-4-6-3h-9l-10 2 2-2z" fill="#F2FEFE"/>
<path transform="translate(491,456)" d="m0 0 5 1 1 1v9l-2 19v17l3 2 6-1 9-7 5 1 2 6-6 11-7 8-1-2-1-5h-5l-4 3-3-1 4-6-2-6-3-4v-27l-4-11-6-2 4-4z" fill="#F2FEFE"/>
<path transform="translate(1241,403)" d="m0 0h2l3 17 4 15 6 16 12 23 7 15v2l-5-2-9-14-8-17-1-7-2-4-3 1-5-6-4-15-1-1v-9l4 1z" fill="#8C1013"/>
<path transform="translate(1695,369)" d="m0 0h3l3 6 6 3 5 10v4l-3 3v3l10 2v2l-8 4-15 3-4-1v-2l8-1-4-12z" fill="#68B4D0"/>
<path transform="translate(178,624)" d="m0 0 5 2-2 4-10 9-13 11-12 12v-3l4-5v-8l-4-2-3-2 6-3 12-9 12-5z" fill="#F2FEFE"/>
<path transform="translate(213,488)" d="m0 0h2l-2 4-7 10-7 15-7 19-7 11-6 9-6 18-17-1-37-5-12-1v-1h13l32 3 5 1h12l3-9 7-16 8-6 4-6v-9l4-9 9-17 7-9z" fill="#F2FEFE"/>
<path transform="translate(380,451)" d="m0 0 2 1-16 15-19 19h-6l-4-4-4-6-2-7-3-1-5 3-6 12-5 7-4 9-5 13v16l1 4 10 3-1 2-9-2-3-2-1-3v-14l3-16 5-14 7-14 7-6 2-1h8l3 5 2 8 6 5 5-1 26-26z" fill="#F2FEFE"/>
<path transform="translate(1631,413)" d="m0 0h7l3 4 5 21 1 9v17l-4-1-4-4-4-12-1-7-1-2h2l1-10-2-6 4-1v-2l-5-2v-2h-2z" fill="#68B4D1"/>
<path transform="translate(1287,937)" d="m0 0 1 3-1 7v21l-2 21-2 8v30l-3-3-1-15 1-7-2-13 1-23 4-24z" fill="#8D1113"/>
<path transform="translate(1690,717)" d="m0 0h5l1 4h-2v2h2l2 3 3 1 1-2 4-1h2l2-1 5 2-1 2 4 2v2l6 1 1 2 3-1 1-2 4-1 6 3v1l-7 2 2 1v2l3 1v2h-13l-11-3-13-7-6-5-4-7z" fill="#63ACD9"/>
<path transform="translate(1215,680)" d="m0 0 10 1 15 1v2h21l7 1-1 4-13 1-2-1h-5l-3 3v1l-12-1-17-4-3-1v-3l-2-2z" fill="#68B3D3"/>
<path transform="translate(1448,505)" d="m0 0 3 3 6 9 5 7 1 8 7-3h4v2l-4 2 1 3 7 2v2l-11 1-7 3-4 4h-3l2-4 3-3-2-6-5-12-4-9v-8z" fill="#63B0D2"/>
<path transform="translate(994,672)" d="m0 0h2v2h-3l1 4v-2l6-1 6 2-2 2-33 12h-8l-6-4v-2l30-10z" fill="#971A16"/>
<path transform="translate(1311,586)" d="m0 0 4 2 7 8 9 10 14 19 13 16 1 4h-5l-12-14-7-9v-2h-2l1-5h-2l-1-4-5-1-5-7-1-4-2-2h-4l-5-7z" fill="#941815"/>
<path transform="translate(1677,413)" d="m0 0h3l1 7 7 11 6 7 3 5 5 3 13 3 10 5 6 2v1l-9-1-19-6-6-1-2 4-6 1-3-3-2-7 9 1-8-10-5-5-3-13z" fill="#64AFD6"/>
<path transform="translate(1255,316)" d="m0 0 2 4 1 5-1 5-4 6-2 8-1 27-2 15h-1v-30l-2-12-2-4h2v-5l2-4v-5l4-4 2-5z" fill="#850910"/>
<path transform="translate(1704,1083)" d="m0 0 5 1 1-1h5l-1 5-3 3-1 7-1 5-7 11-6-1-2-1 3-10 6-12h2z" fill="#8D1113"/>
<path transform="translate(1385,716)" d="m0 0h7l7 6 4 7v3l-14-2-10-2-1-5 5-6z" fill="#FEFDFD"/>
<path transform="translate(354,563)" d="m0 0 1 3-5 19-2 7-5 4-6 1-2-2 5-2v-3l-8-2-2-2v-5l5-1 9 2 4-8 4-7z" fill="#F2FFFF"/>
<path transform="translate(1667,520)" d="m0 0 5 2 8 6 1 2-1 9h7v4l-14 7-1-3 2-1v-5l-3-4-3-12z" fill="#66B3D0"/>
<path transform="translate(1250,438)" d="m0 0 2 3 5 12 10 19 8 17v2l-5-2-9-14-8-17-1-7-2-9z" fill="#941916"/>
<path transform="translate(698,996)" d="m0 0h1l-1 18-2 18v21l-2 7-3-3-1-14 1-5 2-11v-12l4-17z" fill="#860910"/>
<path transform="translate(1297,689)" d="m0 0 16 1 2 1h8l2 2-7 2h-61l-4-2h26l10-2z" fill="#68B4D0"/>
<path transform="translate(1733,674)" d="m0 0 3 1-3 2-1 1h5l-4 2-12 5-7 4h-2v2l-10 6-4 5-4 1 1-4 7-8 10-8 15-7z" fill="#66B1D4"/>
<path transform="translate(1316,877)" d="m0 0h7l10 3 2 3-7 7-7 8-2 1-4-2v-2h2l-1-3 4-8 1-5h-5z" fill="#8E1213"/>
<path transform="translate(318,702)" d="m0 0 5 10 3 4 1 10v6l4 1 7-4 3-4 2 1-3 8-11 8-5-1-3-4v-8l2-4h2l-2-8-5-10z" fill="#F2FEFE"/>
<path transform="translate(266,524)" d="m0 0 6 1 4 4 1 9-5 5-5-1-4-4-1-8 3-5z" fill="#F2FFFF"/>
<path transform="translate(1424,674)" d="m0 0h9v2h9v2h-8l2 6 2 2-6 1-22-8v-3z" fill="#63ADD7"/>
<path transform="translate(1422,721)" d="m0 0h3l8 12 3 3v3l-8-1-17-3v-2l-2-1 2-2 9-1 2-4z" fill="#8D0F12"/>
<path transform="translate(1246,350)" d="m0 0h1l1 6v22l-2 13h-1l-1-16-2 3-2 8h-1v-12l2-9 1-11 2-3z" fill="#850910"/>
<path transform="translate(690,950)" d="m0 0h8l2 5v4l-5-2h-1l2 4h4v8l-2-4-2 1-8-6-4-2h-10v-3z" fill="#8B0E12"/>
<path transform="translate(200,644)" d="m0 0 7 1 8 7 6 9 4 20 5 12 7 13-1 2-6-9-6-13-3-11-2-13-5-5-3-6-2-1-9 2-1 11v6h-1l-1-5v-9l1-9z" fill="#F2FFFF"/>
<path transform="translate(1660,961)" d="m0 0 4 1-1 5h2v7h-12v2l-4 1-4-2-1-5 10-6z" fill="#8C0F13"/>
<path transform="translate(602,452)" d="m0 0h2l8 13 8 20 5 10 6 2v1h-6l-5-6-1-4-3-1-8-14-3-9-2-9z" fill="#F2FEFE"/>
<path transform="translate(300,348)" d="m0 0h33l3 1h21l12 4-1 2-11-2-31-2h-54l1-2h13z" fill="#F2FEFE"/>
<path transform="translate(1022,910)" d="m0 0h29l51 1v1l-17 1h-40l-20 1 2 4h-9v-3z" fill="#880A10"/>
<path transform="translate(1689,949)" d="m0 0h9l5 5 2 7h-3l1 6 2 5-1 4v-2l-2-1-1-5-3-5-2-6-15-2 2-4z" fill="#8C1013"/>
<path transform="translate(1517,461)" d="m0 0 3 4 2-2 3 2h10l1-2 11 8v1l-10-1-8-1-6-1h-8l-3 2h-7v-4z" fill="#63AED6"/>
<path transform="translate(800,967)" d="m0 0h1v20h-2v7l-1 5-4-1-1-8v-11l4-9z" fill="#880C11"/>
<path transform="translate(1453,951)" d="m0 0h16v1l-7 2-8 2h-3l5 2h2l-1 3-3 1h-9l-1 3h-9l1-5z" fill="#8D1013"/>
<path transform="translate(1459,400)" d="m0 0h2l5 7 5 4 6 6 18 3 3 2h-17l-5-1-2 3-6-1 1-8-6-4-4-8z" fill="#65B4CD"/>
<path transform="translate(1072,989)" d="m0 0h1v12l-1 8v20h-2v23h-1l-2-9v-9l1-7-2-13 2-10h3z" fill="#860910"/>
<path transform="translate(909,911)" d="m0 0h82v4l-3 1v-4l-15 3-7 1-5-2-12-1h-39z" fill="#850910"/>
<path transform="translate(666,958)" d="m0 0h2l-2 4-6 7-8 2-8 4 2 2h-6v-7l16-8z" fill="#9C1612"/>
<path transform="translate(1448,505)" d="m0 0 3 3 6 9 5 7v5l-4 1-4-1-7-15v-8z" fill="#67B4CF"/>
<path transform="translate(216,401)" d="m0 0h6v5l-5 10v7l6-1 15-7 2 1-10 6-10 4-5-1-1-15-1-2-4-1-6 2v-2z" fill="#F2FFFF"/>
<path transform="translate(1500,956)" d="m0 0h2l-1 24-1 11-1 34-4-5v-12l2 4v-28l1-17z" fill="#850911"/>
<path transform="translate(1633,985)" d="m0 0h2v48l-4-5-2-3v-12l3-19z" fill="#850911"/>
<path transform="translate(511,945)" d="m0 0h2l1 4v10l-2 12-4 7-4-1 4-16 1-7 1-8z" fill="#890D12"/>
<path transform="translate(181,673)" d="m0 0 13 3-4 4-4 2-1 9 3 5-1 3-8-13-1-2v-9z" fill="#F2FFFF"/>
<path transform="translate(637,361)" d="m0 0h11v2l-5 2v6l4 1-1 3-13 1h-37l-12-1v-1h46l10-1-2-6z" fill="#F3FEFE"/>
<path transform="translate(1322,961)" d="m0 0h5l-1 2h-2v2l-4 2-2 5 3 2-14 1-2-2 1-5 8-4z" fill="#961B17"/>
<path transform="translate(908,910)" d="m0 0h87l-1 3-3-1h-82l2 5 1 2h-10v-4z" fill="#9B1311"/>
<path transform="translate(1867,962)" d="m0 0 2 4v6l-7 12-4 1-2-3 1-5 4-7h2l1-3z" fill="#8F1213"/>
<path transform="translate(1032,1059)" d="m0 0 1 2-7 2-12 2-1 3 12 1v1l-15 1-1 1h-9l2-4 7-6 3-1 18-1z" fill="#8E1013"/>
<path transform="translate(1236,677)" d="m0 0 19 1 26 1-3 3-8 1-26-2h-8l-2-1v-2z" fill="#63ACDB"/>
<path transform="translate(1182,672)" d="m0 0h17l5 2 1 4-1 5-5-1-16-8z" fill="#63AED7"/>
<path transform="translate(1255,327)" d="m0 0 3 1-5 8-2 8-1 27-2 15h-1v-38l2-9v-3l4-8z" fill="#B02F1C"/>
<path transform="translate(1303,551)" d="m0 0 4 1 5 2-1 3-6 3-5 5-1 4-3-1-1-5 3-7z" fill="#8D1113"/>
<path transform="translate(415,1007)" d="m0 0h2l1 9v9l-1 1v16l-1-2-3 1-1-1v-15l2-8z" fill="#850910"/>
<path transform="translate(1562,553)" d="m0 0 3 1 2 16-3 1-3-2-3-7h-6l-1-3h2v-2l7-2z" fill="#64B0D4"/>
<path transform="translate(1215,680)" d="m0 0 10 1 15 1v1h-6v3l3 2-4 1-6-2-9-1-6 1v-3l-2-2z" fill="#63ACDA"/>
<path transform="translate(1141,996)" d="m0 0 1 4v16l2 16 1 7-4-2-1-6 1-3-2-6-1-9-2-6z" fill="#850910"/>
<path transform="translate(1574,355)" d="m0 0 12 3 9 4-1 3-5-1-4 2-1 3-10-11z" fill="#63AED6"/>
<path transform="translate(1677,413)" d="m0 0h3l1 7 7 11 5 9 1 3-4-2-5-6-5-5-3-13z" fill="#62AED5"/>
<path transform="translate(1333,991)" d="m0 0h1l1 16-1 13-2 4-1 14h-1l-1-6 1-11v-16z" fill="#8D1012"/>
<path transform="translate(1813,960)" d="m0 0 2 1-2 4 3 5-1 8-4-3-10-1 2-5z" fill="#8B0F12"/>
<path transform="translate(909,1060)" d="m0 0 3 1-13 3-1 2 4 1 1 2-2 1 10 1v1h-25l1-3 8-6z" fill="#A3291C"/>
<path transform="translate(668,958)" d="m0 0 3 1h-2v2l2 1-2 6h-2l-1 2-2-1-1 2h-8v3l-6 2h-6l1-2 10-5 6-2 7-7z" fill="#850910"/>
<path transform="translate(402,473)" d="m0 0v3l-14 19-10 15-8 15-1-3 7-14 8-11 3-6 6-7 4-6z" fill="#F2FFFF"/>
<path transform="translate(1870,687)" d="m0 0 9 3 8 4-1 7 2 1-1 6-4-5-7-8z" fill="#69B4D2"/>
<path transform="translate(641,482)" d="m0 0 5 1 2 4 4 19-1 4-4-14-4-6h-4l-4 4 3-9z" fill="#F2FEFE"/>
<path transform="translate(1619,523)" d="m0 0 5 3 9 15 1 5h-3l-3-3v-2l-3-1-3-7-2-5z" fill="#62AED6"/>
<path transform="translate(496,556)" d="m0 0h6l2 1-1 4-9 7-4 3-2-1 6-6h2l-4-4-12-1v-1z" fill="#F2FEFE"/>
<path transform="translate(1362,949)" d="m0 0 6 1 3 5-1 11-4-1-2-6-1-7-3-1h2z" fill="#8A0F13"/>
<path transform="translate(422,942)" d="m0 0h1l-1 27-2 26h-1v-43z" fill="#850911"/>
<path transform="translate(404,436)" d="m0 0h6l-1 17h-1l-2-9-1-3-6 1-8 4-4 3-2-1 11-8z" fill="#F2FFFF"/>
<path transform="translate(1709,399)" d="m0 0h7l3 1v2l-8 4-15 3-4-1v-2l10-3v2l6-3z" fill="#64AFD5"/>
<path transform="translate(1591,517)" d="m0 0 5 1 2 1 1 3 1-1 7 1 4 4-1 2h-8l-11-7v-2l-2-1z" fill="#62ADD8"/>
<path transform="translate(427,1068)" d="m0 0h17v3l-52 1 1-2 32-1z" fill="#850910"/>
<path transform="translate(699,999)" d="m0 0h1v10l-3 44h-1l-1-21 3-29z" fill="#C44D28"/>
<path transform="translate(1583,519)" d="m0 0h4v6l-4 5h-6l-2-3 1-5 6 1z" fill="#64AFD5"/>
<path transform="translate(1429,998)" d="m0 0h1v28h-3l-1-9 1-13z" fill="#890910"/>
<path transform="translate(747,961)" d="m0 0 1 3h4v-2l4 1-4 4 3 4-1 1-10 1 1-7z" fill="#860A11"/>
<path transform="translate(617 1e3)" d="m0 0h1l1 22 1 10-3-3-2-11v-14z" fill="#850910"/>
<path transform="translate(1857,950)" d="m0 0 5 1 9 7 2 3-1 6-3 3-1-4-1-7-6-5-2-1v-2z" fill="#A62217"/>
<path transform="translate(1722,682)" d="m0 0 3 1-11 6h-2v2l-10 6-4 5-4 1v-3l8-7 6-3 8-5z" fill="#63ACDA"/>
<path transform="translate(1277,160)" d="m0 0h8v2h5v1l-12 1-1 2h-6l-4-2h-8v-1l17-2z" fill="#860910"/>
<path transform="translate(1545,563)" d="m0 0h5l-2 4-9 4-4 2h-5l2-4 5-3h6z" fill="#63AED6"/>
<path transform="translate(560,374)" d="m0 0h8l1 2-9 1-1 5-6-1-4-2 1-3z" fill="#F2FFFF"/>
<path transform="translate(1703,961)" d="m0 0h3l7 20v6l-2-1-4-10-2-9z" fill="#9B2018"/>
<path transform="translate(1684 1e3)" d="m0 0 3 3v2l3 1 1 3-1 7-2 3h2l-1 6-2-3-1-4v-8l-1-2z" fill="#961815"/>
<path transform="translate(1086,191)" d="m0 0 3 1h-2v2l-14 3-2 2h-9l-2-2z" fill="#9E241A"/>
<path transform="translate(1752,670)" d="m0 0h22l-2 2-7 2h-3l-9-1h-8v-2z" fill="#68B2D4"/>
<path transform="translate(264,530)" d="m0 0 5 2 2 2v5l-2 2-4-1-2-2v-7z" fill="#FDFDFD"/>
<path transform="translate(956,1018)" d="m0 0h1v15l-1 16-2 3v-25z" fill="#850911"/>
<path transform="translate(1334,911)" d="m0 0h3l2 4v6l-1 2-4-2-4-6z" fill="#8F1113"/>
<path transform="translate(690,950)" d="m0 0h8l2 5v4l-5-2-1-2h-6v-3l-2-1z" fill="#901314"/>
<path transform="translate(288,658)" d="m0 0h10l3 4v10l1 9 2 4-4-2-1-3-1-16-3-3-7-2z" fill="#F2FFFF"/>
<path transform="translate(1117,310)" d="m0 0h2l-1 6-2 3h-2l-1 8-4 11-2-1 3-11 1-6h2l2-7z" fill="#850910"/>
<path transform="translate(1563 1e3)" d="m0 0h1l1 21 1 8-2-1-3-11v-12z" fill="#850911"/>
<path transform="translate(1366,988)" d="m0 0h2v11l-1 10-1 2-3-1 2-20z" fill="#850910"/>
<path transform="translate(1677,538)" d="m0 0 10 1v4l-8 4h-3l1-3z" fill="#61AFD2"/>
<path transform="translate(619,954)" d="m0 0h7l7 3-1 5-4 1v-2l-4-1-1-4z" fill="#971A16"/>
<path transform="translate(499,917)" d="m0 0 5 1 7 6 3 6-1 2-4-4-3-1-4-6z" fill="#991E18"/>
<path transform="translate(1508,539)" d="m0 0h18v5l-9-1-9-3z" fill="#62ADD7"/>
<path transform="translate(1076,938)" d="m0 0v3 11l-2 3h-4l1-10z" fill="#850911"/>
<path transform="translate(1930,819)" d="m0 0h1l1 38 2 10-3-1-2-7z" fill="#68B4D0"/>
<path transform="translate(656,735)" d="m0 0 8 1 1 5-1 1h-7l-3-2 1-4z" fill="#F8FAFB"/>
<path transform="translate(1599,409)" d="m0 0m-2 1 2 1-2 6-7 2-1 5-3-3 2-5z" fill="#66B5CC"/>
<path transform="translate(1428,676)" d="m0 0h14v2h-8l2 6 2 2-4-1-4-3h-2v-3h-2v-2z" fill="#69B3D3"/>
<path transform="translate(1285,164)" d="m0 0h11l2 2-10 4-5-1 1-4z" fill="#850910"/>
<path transform="translate(1927,868)" d="m0 0h7l7 6v2l-7-1-7-6z" fill="#65B0D4"/>
<path transform="translate(1129,410)" d="m0 0 4 2-1 3-3 3-2 4-2 8-2-1 1-8z" fill="#850910"/>
<path transform="translate(1246,688)" d="m0 0h7l1 4h5v1l-6 1h-8l-4-3 5-1z" fill="#64AED7"/>
<path transform="translate(796 1e3)" d="m0 0h1l-1 32h-1l-1-15v-13z" fill="#850910"/>
<path transform="translate(1435,972)" d="m0 0h1l-1 7-2 2-2 6-2-1v-7l1-4h2l1-2 2 1z" fill="#8C1013"/>
<path transform="translate(1254,938)" d="m0 0h1v12l-2 18h-1v-24z" fill="#880910"/>
<path transform="translate(961,942)" d="m0 0h2l-1 18-2 4-2-10 2-11z" fill="#850911"/>
<path transform="translate(1577,455)" d="m0 0 5 1 3 5v3h-8z" fill="#67B5CE"/>
<path transform="translate(548,1008)" d="m0 0h1l1 18 1 4h-2l-3-6v-10z" fill="#850910"/>
<path transform="translate(1073,956)" d="m0 0h2v9l-1 9-2-1-1-3v-11z" fill="#850911"/>
<path transform="translate(1311,586)" d="m0 0 4 2 3 8-1 2-4-2-4-6z" fill="#8E1013"/>
<path transform="translate(653,516)" d="m0 0 3 3 2 8 10-3 6 1v2h-7l-9 3-2-2-3-9z" fill="#F2FEFE"/>
<path transform="translate(1505,901)" d="m0 0 4 1-1 5-2 6-4-2v-5z" fill="#850910"/>
<path transform="translate(1734,734)" d="m0 0h5l3 2-1 5-8-1-1-3-2-1z" fill="#6AB4D3"/>
<path transform="translate(1e3 671)" d="m0 0h3l1 6-7-1-3 1-2-1v2l-2-1 1-3h3v-2z" fill="#8A090F"/>
<path transform="translate(352,1064)" d="m0 0h3l-1 4-1 2h6l-4 2h-9l2-4z" fill="#931615"/>
<path transform="translate(1281 1e3)" d="m0 0h1l1 23-3-3-1-15z" fill="#850911"/>
<path transform="translate(907,911)" d="m0 0 2 1 2 5 1 2h-10v-4z" fill="#901314"/>
<path transform="translate(1599,504)" d="m0 0h13v3l-10 2-3-2z" fill="#63ADD9"/>
<path transform="translate(1739,734)" d="m0 0h9l5 2-1 2-8 2h-5l3-1v-3l-3-1z" fill="#64ADD9"/>
<path transform="translate(254,639)" d="m0 0h7v1l-6 1-3 6h-3l-2-3v-3l-2-1z" fill="#F2FFFF"/>
<path transform="translate(563,482)" d="m0 0 3 1 5 10 2 11-1 4-5-16z" fill="#F2FEFE"/>
<path transform="translate(1690,1018)" d="m0 0 3 3 1 13-3-2v-3l-2-1 1-6h-2z" fill="#860910"/>
<path transform="translate(1453,951)" d="m0 0h16v1l-7 2-8 2-3-2v-2z" fill="#8A0E12"/>
<path transform="translate(368,912)" d="m0 0 1 4 13 3v1l-20-1z" fill="#850910"/>
<path transform="translate(1355,895)" d="m0 0 4 1 2 2v3l-8 1-2-2 2-4z" fill="#901414"/>
<path transform="translate(1870,687)" d="m0 0 9 3 3 6-1 2-4-2-7-8z" fill="#64B1D3"/>
<path transform="translate(1504,925)" d="m0 0 1 3-1 13-4-4 1-9 3-1z" fill="#850911"/>
<path transform="translate(1726,709)" d="m0 0h7l-1 5-2 1h-6l1-5z" fill="#F2FFFF"/>
<path transform="translate(238,415)" d="m0 0 2 1-10 6-10 4-5-1v-2l8-1z" fill="#F3FEFE"/>
<path transform="translate(1583,360)" d="m0 0h9l3 2-1 3-5-1-6 2-1-3z" fill="#69B3D2"/>
<path transform="translate(1041,205)" d="m0 0 5 1 1 4-2 1-9-1 1-3z" fill="#991D17"/>
<path transform="translate(1774,1044)" d="m0 0h3l1 5-1 4h-4l-2-4v-3z" fill="#8F1113"/>
<path transform="translate(304,685)" d="m0 0 11 3 4 4v8h-2l-2-10-10-3z" fill="#F2FFFF"/>
<path transform="translate(1238,680)" d="m0 0 22 1-1 2h-19l-3-2z" fill="#6AB4D3"/>
<path transform="translate(639,1041)" d="m0 0 4 1-2 4-7 1-3-1 3-3z" fill="#8C0F12"/>
<path transform="translate(1772,990)" d="m0 0 2 1-9 19h-2l1-4 3-6 2-7z" fill="#AF2F1C"/>
<path transform="translate(1236,677)" d="m0 0h8l5 1-2 2-9 1-4-1v-2z" fill="#63AED5"/>
<path transform="translate(1050,429)" d="m0 0 2 1-1 3v5l-5 4-2 2 1-6 3-8z" fill="#880910"/>
<path transform="translate(1091,1063)" d="m0 0h6l-2 4-5 2-4-2 1-3z" fill="#8C0F12"/>
<path transform="translate(650,1035)" d="m0 0 3 1 1 6-4 5h-3l2-4v-5l-1-2z" fill="#9C1F18"/>
<path transform="translate(699,953)" d="m0 0 2 1v13h-1l-1-5-4-1-2-6-2-1 4 1v2l5 2z" fill="#AB291A"/>
<path transform="translate(1242,682)" d="m0 0h18l9 1v3l-11-1-18-1z" fill="#63ACDB"/>
<path transform="translate(1285,160)" d="m0 0 9 1 7 3v2l-13-2-3-2z" fill="#AC2A1A"/>
<path transform="translate(1327,1031)" d="m0 0h1v27h-1v-16l-2-1-1-8h2z" fill="#F18C41"/>
<path transform="translate(1220,968)" d="m0 0 3 1 1 7 2 3-1 6-2-1-3-12z" fill="#850911"/>
<path transform="translate(1068,971)" d="m0 0 4 3-1 10h-2l-1 2-1-3z" fill="#850911"/>
<path transform="translate(1674,526)" d="m0 0 4 1 3 3v5h-3l-4-5z" fill="#64AFD6"/>
<path transform="translate(1255,327)" d="m0 0 3 1-5 8-1 5-3-6 4-7z" fill="#B3341E"/>
<path transform="translate(1532,1020)" d="m0 0h1v12l-1 9-1 2-2-1 1-2-2-1 2-1 1-16z" fill="#850910"/>
<path transform="translate(1690,717)" d="m0 0h5l1 4h-2v2h2l2 5-4-1-4-7z" fill="#63AED6"/>
<path transform="translate(553,977)" d="m0 0h1l-1 10-4-1v-7z" fill="#8F1314"/>
<path transform="translate(1560,971)" d="m0 0 7 1v2l-5 2-7 1 2-5z" fill="#850911"/>
<path transform="translate(991,704)" d="m0 0 5 1 1 4h-10l1-3z" fill="#850910"/>
<path transform="translate(793,950)" d="m0 0 4 2 3 3 2 1-3 3-3-2-5-5z" fill="#850910"/>
<path transform="translate(515,938)" d="m0 0h1v16l-2 10h-1v-16z" fill="#BE4625"/>
<path transform="translate(1478,909)" d="m0 0v3l-2 6-2 2-1 7-2 1 1-11 4-6z" fill="#B5381F"/>
<path transform="translate(186,715)" d="m0 0 4 1-5 2-1 4-4-2-1-4z" fill="#F3FEFE"/>
<path transform="translate(1279,680)" d="m0 0 13 1-2 2-15 1-2-2z" fill="#6AB4D3"/>
<path transform="translate(1455,528)" d="m0 0 1 2 6-1-2 4v3l-2 2-3-5z" fill="#62ADD6"/>
<path transform="translate(1677,413)" d="m0 0h3l1 7 4 7-4-1-1-3-2-1z" fill="#65B5CB"/>
<path transform="translate(1220,1032)" d="m0 0 2 1-1 5-2 3-4-1 1-4z" fill="#921716"/>
<path transform="translate(956,520)" d="m0 0 4 1-4 2v2l-3 2-7 1 4-4z" fill="#A2261A"/>
<path transform="translate(1842,947)" d="m0 0h5l1 2-12 2h-7l2-2z" fill="#A0271B"/>
<path transform="translate(1532,877)" d="m0 0h8l10 2v2h-8l-4-1v-2h-6z" fill="#AD3620"/>
<path transform="translate(912,1060)" d="m0 0 5 1-3 2-11 2h-5l1-2z" fill="#860910"/>
<path transform="translate(1645,969)" d="m0 0 5 2 1 6-6-2-1-5z" fill="#A82518"/>
<path transform="translate(1462,530)" d="m0 0 1 2 3 1-2 5-6 1 2-4v-3z" fill="#68B4D1"/>
<path transform="translate(1251,969)" d="m0 0h1v15l-1 7-2-1v-8l1-1z" fill="#8A0910"/>
<path transform="translate(1254,926)" d="m0 0h1v12l-2 6h-1l1-15z" fill="#B4361F"/>
<path transform="translate(485,543)" d="m0 0v3l-6 7v5l1 2-4-1 1-7 7-8z" fill="#F2FFFF"/>
<path transform="translate(1631,413)" d="m0 0h7l2 4-5 1-2-1v-2h-2z" fill="#66B5CD"/>
<path transform="translate(474,945)" d="m0 0h1v10l-1 6-2-1v-10z" fill="#8D0A0F"/>
<path transform="translate(1752,670)" d="m0 0h7l3 2-17 1v-2z" fill="#64AFD5"/>
<path transform="translate(1567,487)" d="m0 0 2 3 4 9-1 2-5-3-1-3 1-4z" fill="#F2FFFF"/>
<path transform="translate(391,488)" d="m0 0v3l-10 14-1-2 6-10z" fill="#F3FEFE"/>
<path transform="translate(1701,403)" d="m0 0 2 4-7 2-4-1v-2z" fill="#62AFD3"/>
<path transform="translate(978,1062)" d="m0 0 7 1-1 3-5 3h-2z" fill="#A52B1C"/>
<path transform="translate(1857,950)" d="m0 0 5 1 7 5v3l-4-2-6-4v-2z" fill="#9E2219"/>
<path transform="translate(1477,912)" d="m0 0h3 4l-1 3h-2l-2 4-3-1v-5z" fill="#850910"/>
<path transform="translate(1291,690)" d="m0 0m-1 1m-3 0 4 2-1 2h-8l-1-3z" fill="#68B2D4"/>
<path transform="translate(1096,571)" d="m0 0 2 1-13 13v-3l5-6z" fill="#D66632"/>
<path transform="translate(1703,961)" d="m0 0h3l3 8v3l-3-1z" fill="#9E2319"/>
<path transform="translate(1322,682)" d="m0 0h8l-1 4 2 1-2 3-3-1-1-5z" fill="#6AB4D3"/>
<path transform="translate(462,592)" d="m0 0 4 4 8 2v3l-5-2-7-2-1-4z" fill="#F2FEFE"/>
<path transform="translate(1302,543)" d="m0 0 6 2 1 5-5-1-2-1z" fill="#8B0D12"/>
<path transform="translate(1570,492)" d="m0 0h3l1 3 7 3-1 2-9-3z" fill="#62ACD9"/>
<path transform="translate(1459,400)" d="m0 0h2l5 7 2 2-7-1-2-5z" fill="#64B7C7"/>
<path transform="translate(791,949)" d="m0 0 9 1-4 2-3-1-8 3-1-3z" fill="#B03620"/>
<path transform="translate(439,626)" d="m0 0v3l-8 7 2 3h-5l2-5z" fill="#F2FEFE"/>
<path transform="translate(1106,1017)" d="m0 0h1l1 20-3-3z" fill="#890910"/>
<path transform="translate(1775,670)" d="m0 0 13 1-3 2-4 1-7-1z" fill="#68B4D0"/>
<path transform="translate(1576,522)" d="m0 0 4 2v2 4l-4-1-1-5z" fill="#63ACDB"/>
<path transform="translate(1689,433)" d="m0 0 5 5 3 6h-2l-1 2-2-6-3-5z" fill="#66B6CB"/>
<path transform="translate(1535,452)" d="m0 0 7 2v3l-4 1-3-3z" fill="#65AFD6"/>
<path transform="translate(1692,448)" d="m0 0 5 1-2 4-6 1z" fill="#68B4D0"/>
<path transform="translate(471,322)" d="m0 0h3l-2 4-5 2h-4v-2l6-2z" fill="#F3FEFE"/>
</svg>
